<?xml version="1.0" encoding="UTF-8" standalone="no"?>
<!-- Created with Inkscape (http://www.inkscape.org/) -->

<svg
   xmlns:dc="http://purl.org/dc/elements/1.1/"
   xmlns:cc="http://creativecommons.org/ns#"
   xmlns:rdf="http://www.w3.org/1999/02/22-rdf-syntax-ns#"
   xmlns:svg="http://www.w3.org/2000/svg"
   xmlns="http://www.w3.org/2000/svg"
   xmlns:xlink="http://www.w3.org/1999/xlink"
   xmlns:sodipodi="http://sodipodi.sourceforge.net/DTD/sodipodi-0.dtd"
   xmlns:inkscape="http://www.inkscape.org/namespaces/inkscape"
   id="svg2"
   version="1.1"
   inkscape:version="0.92.1 r15371"
   width="24"
   height="24"
   viewBox="0 0 22.5 22.5"
   sodipodi:docname="icon.svg"
   inkscape:export-filename="Fingerprint.png"
   inkscape:export-xdpi="90"
   inkscape:export-ydpi="90">
  <metadata
     id="metadata8">
    <rdf:RDF>
      <cc:Work
         rdf:about="">
        <dc:format>image/svg+xml</dc:format>
        <dc:type
           rdf:resource="http://purl.org/dc/dcmitype/StillImage" />
        <dc:title></dc:title>
        <cc:license
           rdf:resource="http://creativecommons.org/publicdomain/zero/1.0/" />
      </cc:Work>
      <cc:License
         rdf:about="http://creativecommons.org/publicdomain/zero/1.0/">
        <cc:permits
           rdf:resource="http://creativecommons.org/ns#Reproduction" />
        <cc:permits
           rdf:resource="http://creativecommons.org/ns#Distribution" />
        <cc:permits
           rdf:resource="http://creativecommons.org/ns#DerivativeWorks" />
      </cc:License>
    </rdf:RDF>
  </metadata>
  <defs
     id="defs6">
    <linearGradient
       inkscape:collect="always"
       id="linearGradient4539">
      <stop
         style="stop-color:#6200a4;stop-opacity:1;"
         offset="0"
         id="stop4535" />
      <stop
         style="stop-color:#dcadff;stop-opacity:1"
         offset="1"
         id="stop4537" />
    </linearGradient>
    <linearGradient
       inkscape:collect="always"
       xlink:href="#linearGradient4539"
       id="linearGradient4541"
       x1="16.80719"
       y1="12.270292"
       x2="110.2907"
       y2="110.38136"
       gradientUnits="userSpaceOnUse"
       gradientTransform="matrix(0.15625,0,0,0.15625,1.8383789,1.875)" />
  </defs>
  <sodipodi:namedview
     pagecolor="#ffffff"
     bordercolor="#666666"
     borderopacity="1"
     objecttolerance="10"
     gridtolerance="10"
     guidetolerance="10"
     inkscape:pageopacity="0"
     inkscape:pageshadow="2"
     inkscape:window-width="1920"
     inkscape:window-height="1031"
     id="namedview4"
     showgrid="false"
     inkscape:zoom="11.313708"
     inkscape:cx="5.50616"
     inkscape:cy="17.061436"
     inkscape:window-x="0"
     inkscape:window-y="27"
     inkscape:window-maximized="1"
     inkscape:current-layer="svg2"
     fit-margin-top="0"
     fit-margin-left="0"
     fit-margin-right="0"
     fit-margin-bottom="0" />
  <circle
     style="opacity:1;fill:url(#linearGradient4541);fill-opacity:1;stroke:none;stroke-width:0.14911857;stroke-opacity:1"
     id="path4533"
     cx="11.25"
     cy="11.25"
     r="9.375" />
  <path
     d="m 11.694687,18.726723 c -0.08172,-0.02956 -0.181342,-0.112022 -0.215682,-0.178399 -0.01564,-0.03024 -0.05767,-0.13907 -0.09336,-0.241736 -0.17403,-0.501026 -0.401063,-0.774087 -0.67478,-0.811606 -0.207346,-0.02836 -0.584002,0.226989 -1.0173477,0.689828 C 9.4355707,18.460319 9.3440199,18.505907 9.1447422,18.458112 9.0233333,18.428952 8.884899,18.302401 8.854988,18.193115 8.791705,17.961889 8.844314,17.86032 9.2234307,17.481845 c 0.4152937,-0.414591 0.708958,-0.625292 1.0462283,-0.75066 0.137591,-0.0511 0.166531,-0.0552 0.39557,-0.05574 0.231231,-9.37e-4 0.257416,0.003 0.407484,0.05664 0.219304,0.07828 0.341981,0.154864 0.52208,0.326068 0.239174,0.227335 0.426258,0.539239 0.571088,0.95208 0.0777,0.221622 0.09305,0.311191 0.07092,0.415332 -0.05041,0.237109 -0.31439,0.38381 -0.542112,0.301257 z m 1.707122,-0.521941 c -0.109242,-0.04962 -0.428358,-0.310896 -0.641281,-0.525026 -0.42817,-0.430578 -0.705033,-0.893583 -0.836318,-1.398625 -0.135017,-0.519397 -0.06764,-1.172774 0.165162,-1.60093 0.140352,-0.258179 0.387607,-0.335571 0.613829,-0.192182 0.188091,0.119234 0.236643,0.338809 0.126087,0.570266 -0.107132,0.224284 -0.140542,0.379777 -0.138916,0.646512 0.0012,0.182233 0.01061,0.27207 0.04081,0.384225 0.0492,0.183144 0.174406,0.445149 0.299902,0.627683 0.12237,0.177945 0.430883,0.498496 0.647147,0.672369 0.263503,0.211836 0.311763,0.289361 0.296286,0.475931 -0.02296,0.276419 -0.321845,0.453751 -0.572684,0.339777 z m -5.8758135,-0.14702 c -0.1453666,-0.03726 -0.2684059,-0.15253 -0.3044954,-0.285461 -0.028704,-0.105723 -0.00834,-0.256355 0.045705,-0.337968 0.027615,-0.04171 0.1858964,-0.173576 0.403076,-0.335765 1.6180251,-1.208543 3.0606149,-2.569134 3.8538199,-3.634794 0.301592,-0.405189 0.550636,-0.840388 0.675492,-1.180413 0.176069,-0.479482 0.160749,-0.838372 -0.05501,-1.287696 -0.192393,-0.400751 -0.528631,-0.624292 -0.93902,-0.624292 -0.361359,0 -0.719379,0.188848 -0.958635,0.505644 -0.05564,0.07363 -0.184764,0.3071 -0.3123698,0.5647 -0.6442552,1.300595 -1.2272066,1.990765 -2.4909764,2.949181 -0.4252323,0.32248 -1.5028206,1.087822 -1.5727677,1.117035 -0.1017969,0.04251 -0.2900156,0.02462 -0.3822728,-0.03647 C 5.2954959,15.343743 5.2470033,15.065059 5.3855576,14.879444 5.4089066,14.848174 5.5994,14.700351 5.8088762,14.550965 7.1167849,13.618258 7.6069981,13.230909 8.0215678,12.80258 8.4899514,12.318652 8.7790532,11.888751 9.1917045,11.062565 9.4365641,10.572322 9.5427574,10.40357 9.7376887,10.194936 10.161261,9.7415772 10.817531,9.4832132 11.384101,9.5467482 c 0.444227,0.04981 0.784605,0.209461 1.095036,0.5135758 0.345219,0.3382 0.561121,0.769925 0.648917,1.29763 0.03688,0.221611 0.02941,0.518724 -0.01943,0.769529 -0.130162,0.669057 -0.628476,1.535013 -1.402102,2.43649 -0.704453,0.820887 -1.7425175,1.790304 -2.8992214,2.707492 -0.4145164,0.328697 -0.8975396,0.690823 -0.988308,0.740975 -0.083456,0.04606 -0.2121048,0.06603 -0.2930218,0.04537 z M 15.13621,17.178307 c -0.257557,-0.09804 -0.520328,-0.238587 -0.704891,-0.377043 -0.570641,-0.428083 -0.955966,-1.161432 -1.109674,-2.111925 -0.09236,-0.571294 -0.06419,-0.965314 0.14475,-2.022018 0.205588,-1.039841 0.232204,-1.552041 0.105523,-2.030647 C 13.431623,10.106656 13.066835,9.6340632 12.527603,9.2837545 12.119449,9.0185959 11.683581,8.8893027 11.19827,8.8894238 10.710624,8.8895262 10.285928,9.0193779 9.8634634,9.2974852 9.326623,9.6508852 8.9477842,10.122085 8.5514417,10.929413 c -0.1136268,0.231464 -0.2555124,0.494928 -0.315298,0.585496 -0.4138853,0.626961 -1.1725389,1.338666 -2.0625221,1.93489 -0.2671289,0.178946 -0.3426759,0.214136 -0.4597942,0.214136 -0.3417976,0 -0.5389279,-0.415367 -0.3170225,-0.667986 C 5.4277328,12.960763 5.5446588,12.87128 5.656649,12.79714 6.4677091,12.260233 7.1711275,11.611744 7.5436765,11.057501 7.591023,10.987029 7.6721968,10.838854 7.7240606,10.728152 8.0632923,10.004128 8.3465964,9.5673362 8.743158,9.1569189 9.3774502,8.5004831 10.111305,8.1400932 10.96926,8.0637125 c 0.814713,-0.07252 1.698696,0.2230631 2.382686,0.7967323 0.822908,0.6901904 1.198256,1.5946582 1.120831,2.7008602 -0.02443,0.348555 -0.068,0.640542 -0.185595,1.243495 -0.135391,0.694094 -0.163798,0.893298 -0.174804,1.22587 -0.0081,0.258134 -0.0046,0.333712 0.02933,0.521458 0.120373,0.672822 0.315325,1.121395 0.623834,1.435385 0.171494,0.174544 0.34979,0.285977 0.659135,0.411939 0.256135,0.104289 0.311762,0.142391 0.368056,0.252126 0.08331,0.162387 0.05479,0.353468 -0.07113,0.476089 -0.149915,0.146001 -0.300582,0.159037 -0.585372,0.05061 z M 6.2608282,17.023909 c -0.088589,-0.04122 -0.1554724,-0.109007 -0.2093501,-0.212178 -0.037634,-0.07205 -0.029871,-0.253124 0.0145,-0.338492 0.048136,-0.09261 0.088118,-0.128218 0.3800346,-0.338592 1.4441173,-1.04074 2.7563865,-2.277641 3.5715693,-3.366429 0.321145,-0.428942 0.534541,-0.769391 0.739198,-1.179325 0.11841,-0.237201 0.148084,-0.28248 0.215865,-0.329455 0.06388,-0.04428 0.101683,-0.05574 0.20209,-0.06147 0.08099,-0.005 0.145288,0.002 0.186834,0.01957 0.208873,0.08748 0.307245,0.320079 0.229062,0.541582 -0.04016,0.113737 -0.238036,0.499525 -0.362261,0.706262 -0.831461,1.38363 -2.3542599,2.927829 -4.2533146,4.313113 -0.1721351,0.125564 -0.3473402,0.242039 -0.3893459,0.258833 -0.1060221,0.04243 -0.2146001,0.03785 -0.3248859,-0.01345 z m 9.7906788,-0.917696 c -0.100094,-0.04992 -0.413405,-0.359671 -0.622917,-0.615952 -0.259503,-0.317437 -0.476704,-0.693669 -0.578582,-1.002183 -0.08826,-0.267219 -0.111884,-0.426618 -0.111312,-0.750157 6.25e-4,-0.3538 0.01212,-0.457042 0.155321,-1.390529 0.145504,-0.94873 0.168754,-1.159905 0.169196,-1.536898 3.75e-4,-0.363427 -0.02238,-0.504124 -0.127508,-0.786746 C 14.869105,9.8447162 14.723885,9.5421922 14.619522,9.3650781 14.320842,8.8581826 13.830286,8.345646 13.356044,8.0449827 12.259124,7.3495608 10.679206,7.253836 9.5578179,7.8148449 9.2202837,7.9837106 8.9177268,8.2034225 8.6084223,8.5042718 8.251086,8.8518525 7.9859177,9.2026635 7.5522439,9.9015882 7.3246989,10.268302 7.1426338,10.51671 6.9196013,10.764746 6.560581,11.164022 6.0027071,11.589809 5.7919558,11.625405 5.6266585,11.653341 5.4258455,11.544221 5.3548015,11.387848 5.3359601,11.346436 5.320905,11.270998 5.3206792,11.217001 5.3199226,11.047912 5.3932838,10.929581 5.5576713,10.834475 5.7211956,10.739865 5.9876816,10.526336 6.1694712,10.344232 6.4604945,10.052719 6.6182108,9.8394772 6.9916079,9.2326665 7.6413522,8.1767521 8.3509604,7.4842158 9.2119616,7.0657376 9.7889592,6.7852936 10.345384,6.6511131 11.031344,6.6270027 c 1.20435,-0.042354 2.312221,0.3140219 3.203329,1.0303518 0.699862,0.5626008 1.318809,1.4823147 1.561738,2.3206497 0.0831,0.2867888 0.09492,0.3935568 0.09391,0.8507778 -0.0011,0.487308 -0.01356,0.608428 -0.16421,1.582648 -0.174599,1.129343 -0.194484,1.412049 -0.119678,1.701565 0.09016,0.348841 0.344708,0.742718 0.75883,1.174087 0.243954,0.254112 0.2856,0.320112 0.2856,0.452526 0,0.309759 -0.320258,0.505635 -0.599387,0.366605 z m 0.338804,-1.581475 c -0.08872,-0.02668 -0.172543,-0.08955 -0.225755,-0.169295 -0.07635,-0.114422 -0.07879,-0.236001 -0.01105,-0.562635 0.261456,-1.261503 0.281464,-2.461665 0.057,-3.421435 -0.04373,-0.186849 -0.07527,-0.287114 -0.156866,-0.4981808 -0.09828,-0.254219 -0.07584,-0.407167 0.08058,-0.5480683 0.208369,-0.1877818 0.518791,-0.1171914 0.653317,0.1485623 0.103542,0.204549 0.230499,0.6440118 0.301622,1.0440618 0.155979,0.877375 0.142729,1.949014 -0.03725,3.00976 -0.06108,0.359971 -0.138989,0.714147 -0.172768,0.785315 -0.08135,0.171378 -0.303526,0.267699 -0.488853,0.211915 z M 5.7909551,9.4122005 C 5.6123684,9.364259 5.5006344,9.2219424 5.4885355,9.0269648 5.4800643,8.8903175 5.5103497,8.8288314 5.8042188,8.3862426 6.3464476,7.5696076 6.9907914,6.8211799 7.5027657,6.4133325 8.3383668,5.747653 9.2903057,5.358833 10.427294,5.2187787 c 0.316346,-0.039003 1.048638,-0.053711 1.349058,-0.027182 1.234351,0.1090926 2.373559,0.5814514 3.428475,1.4215736 0.453317,0.3610132 1.16026,1.1059037 1.371397,1.4450223 0.118265,0.1899415 0.09389,0.3968534 -0.06294,0.5348505 -0.177234,0.1559444 -0.399587,0.15102 -0.55797,-0.012382 C 15.910014,8.5339311 15.802926,8.4051771 15.71735,8.294558 15.528539,8.0504848 15.010946,7.5265073 14.745106,7.3103235 13.619344,6.394845 12.402919,5.9597687 11.095415,6.0049546 9.9936439,6.0430286 9.1300156,6.3006838 8.349708,6.8241122 7.7166428,7.2487625 7.1329932,7.8880231 6.4976116,8.852681 6.1822289,9.3315098 6.1811278,9.3329247 6.0890534,9.377059 5.9776059,9.4304927 5.895324,9.4401742 5.7909551,9.4121539 Z M 6.2812742,6.5769017 C 6.097984,6.496844 5.9903596,6.294093 6.0322509,6.1077354 6.058689,5.9901162 6.1660261,5.8485071 6.4277118,5.5860111 7.1866649,4.8246811 8.1853411,4.266595 9.3107057,3.9749151 10.318447,3.7137219 11.506531,3.6785995 12.623863,3.8769751 c 0.720525,0.1279148 1.524419,0.4097272 2.169321,0.7604545 0.308231,0.1676372 0.748636,0.4561704 1.028452,0.6737787 0.236231,0.1837231 0.298731,0.2758639 0.298025,0.4393399 -0.0013,0.2794941 -0.287553,0.4819566 -0.548744,0.3879912 C 15.535686,6.1258788 15.400594,6.0352274 15.270723,5.9371291 14.702203,5.5077031 14.14891,5.2010635 13.552891,4.9851127 12.241773,4.5100632 10.671938,4.4468363 9.3738201,4.816796 8.3789312,5.10034 7.4486508,5.6638714 6.8526455,6.3440362 6.7416463,6.4707137 6.6613983,6.5452787 6.6118526,6.5677694 c -0.087171,0.039565 -0.2505215,0.044122 -0.3305784,0.00929 z"
     id="path4138"
     inkscape:connector-curvature="0"
     style="fill:#ffffff;stroke-width:0.01464832" />
</svg>
