<?xml version="1.0" encoding="UTF-8" standalone="no"?>
<svg
   xmlns:dc="http://purl.org/dc/elements/1.1/"
   xmlns:cc="http://creativecommons.org/ns#"
   xmlns:rdf="http://www.w3.org/1999/02/22-rdf-syntax-ns#"
   xmlns:svg="http://www.w3.org/2000/svg"
   xmlns="http://www.w3.org/2000/svg"
   id="svg4620"
   version="1.1"
   viewBox="0 0 32 32"
   height="32"
   width="32">
  <metadata
     id="metadata4626">
    <rdf:RDF>
      <cc:Work
         rdf:about="">
        <dc:format>image/svg+xml</dc:format>
        <dc:type
           rdf:resource="http://purl.org/dc/dcmitype/StillImage" />
        <dc:title></dc:title>
      </cc:Work>
    </rdf:RDF>
  </metadata>
  <defs
     id="defs4624" />
  <path
     style="fill:#5a5a5a;fill-opacity:1;stroke:none;stroke-width:1.38967609;stroke-linecap:butt;stroke-miterlimit:4;stroke-dasharray:none;stroke-opacity:0.90291263"
     id="path4618"
     d="m 7.1774188,11.999999 c -0.067763,0 -0.1360922,-0.0047 -0.2049851,-0.01498 C 6.3326316,11.891848 5.9051556,11.386207 6.0180951,10.855285 7.4179798,4.2632137 12.261388,2.5749321 15.023888,2.1559049 19.644806,1.456902 24.340828,3.2154117 25.834453,5.2974383 26.166495,5.760475 25.983535,6.3588176 25.424484,6.6336434 24.865433,6.9098726 24.143749,6.7558391 23.812271,6.2932707 22.89238,5.0104388 19.174977,3.5113048 15.447975,4.0740653 12.808016,4.4748331 9.4305614,6.0362361 8.335613,11.19425 8.2345322,11.666651 7.7381632,11.999999 7.1774188,11.999999 Z m 9.4538502,14.000002 c -0.486051,0 -0.980358,-0.03417 -1.483475,-0.10612 -4.509874,-0.63674 -8.4357152,-4.082381 -9.1320402,-8.013085 -0.1040363,-0.58756 0.3181629,-1.142508 0.9423783,-1.24035 0.6264173,-0.10612 1.2148533,0.300254 1.3194394,0.886778 0.5311889,2.998372 3.6990555,5.73687 7.2109545,6.233837 1.908977,0.266602 5.470968,0.06109 7.833518,-4.382114 C 24.462586,17.233185 23.004982,11.881465 19.952163,9.3469305 18.238046,7.9238433 16.457326,7.7690582 14.662844,8.895 c -1.398155,0.8764245 -2.855758,3.39077 -2.79631,5.733763 0.04625,1.854829 0.972104,3.303799 2.750624,4.307571 0.603848,0.340112 2.324017,0.557018 3.325295,-0.106645 0.783296,-0.519228 1.016689,-1.553541 0.694122,-3.071364 -0.25431,-1.193239 -1.414667,-3.313116 -1.970076,-3.387145 0.0028,10e-4 -0.199815,0.06005 -0.538897,0.538383 -0.273024,0.384113 -0.537792,1.820144 -0.179996,2.4486 0.06659,0.118029 0.124952,0.188433 0.372657,0.188433 0.633022,0 1.146596,0.482474 1.146596,1.078317 0,0.595844 -0.512473,1.079351 -1.145495,1.079351 -1.056873,0 -1.907325,-0.470564 -2.394479,-1.326799 -0.818525,-1.438618 -0.373207,-3.722599 0.293392,-4.663731 1.033756,-1.457254 2.142921,-1.598578 2.89209,-1.457254 2.594292,0.482474 3.76401,5.034385 3.773365,5.079423 0.644584,3.028914 -0.526233,4.530688 -1.621638,5.257503 -1.848976,1.225854 -4.572076,0.900237 -5.826011,0.192576 -3.110068,-1.754917 -3.8179516,-4.288416 -3.8636396,-6.105453 -0.08422,-3.316225 1.9034706,-6.38034 3.8174016,-7.5803099 2.649888,-1.6617353 5.59592,-1.4324055 8.079571,0.6289752 3.646212,3.0273597 5.615738,9.3937227 3.903274,12.6141767 -1.942003,3.651676 -5.076292,5.65663 -8.743421,5.65663 z M 16.084515,30 c -1.149669,0 -2.179458,-0.144244 -3.045086,-0.338998 -2.828006,-0.635257 -5.4524287,-2.20106 -6.850501,-4.087406 -0.3445232,-0.465758 -0.204662,-1.093245 0.3121226,-1.40359 0.5157047,-0.310344 1.2144709,-0.183582 1.5600739,0.28072 1.8338569,2.474493 7.8786695,5.527419 14.1897045,1.743072 0.516784,-0.309373 1.215011,-0.18504 1.560075,0.280716 0.344522,0.465274 0.205201,1.092761 -0.311583,1.403105 C 20.798757,29.496361 18.231575,30 16.084515,30 Z" />
</svg>
